<?xml version="1.0" encoding="UTF-8"?>
<svg xmlns="http://www.w3.org/2000/svg" width="512" height="512" viewBox="0 0 512 512">
  <defs>
    <linearGradient id="g" x1="0" x2="1" y1="0" y2="1">
      <stop offset="0" stop-color="#2563eb"/>
      <stop offset="1" stop-color="#1d4ed8"/>
    </linearGradient>
    <linearGradient id="g2" x1="0" x2="1" y1="1" y2="0">
      <stop offset="0" stop-color="#f59e0b"/>
      <stop offset="1" stop-color="#fbbf24"/>
    </linearGradient>
    <filter id="shadow" x="-20%" y="-20%" width="140%" height="140%">
      <feDropShadow dx="0" dy="8" stdDeviation="10" flood-color="#0f172a" flood-opacity="0.2"/>
    </filter>
  </defs>
  <rect x="0" y="0" width="512" height="512" rx="64" fill="#ffffff"/>
  <!-- Price tag shape -->
  <g transform="translate(96,80)" filter="url(#shadow)">
    <path d="M64 0h176c17.7 0 32 14.3 32 32v112.7c0 8.5-3.4 16.7-9.4 22.6L214.6 291c-12.5 12.5-32.8 12.5-45.3 0L9.4 130.6C3.4 124.7 0 116.5 0 108V64C0 28.7 28.7 0 64 0Z" fill="url(#g)"/>
    <!-- Hole -->
    <circle cx="224" cy="56" r="16" fill="#fff" opacity="0.9"/>
    <!-- Stitch line -->
    <path d="M32 76h160" stroke="#93c5fd" stroke-width="6" stroke-dasharray="10 10" stroke-linecap="round"/>
    <!-- T (Thrift) monogram -->
    <g transform="translate(56,84)">
      <rect x="0" y="0" width="144" height="96" rx="16" fill="url(#g2)"/>
      <path d="M32 28h80a8 8 0 0 1 0 16H88v32a8 8 0 0 1-16 0V44H32a8 8 0 0 1 0-16Z" fill="#0b1020" opacity="0.95"/>
    </g>
  </g>
</svg>
